<?xml version="1.0" standalone="no"?>
<!DOCTYPE svg PUBLIC "-//W3C//DTD SVG 20010904//EN"
 "http://www.w3.org/TR/2001/REC-SVG-20010904/DTD/svg10.dtd">
<svg version="1.0" xmlns="http://www.w3.org/2000/svg"
 width="1024.000000pt" height="1024.000000pt" viewBox="0 0 1024.000000 1024.000000"
 preserveAspectRatio="xMidYMid meet">
<metadata>
Created by potrace 1.14, written by Peter Selinger 2001-2017
</metadata>
<g transform="translate(0.000000,1024.000000) scale(0.100000,-0.100000)"
fill="#000000" stroke="none">
<path d="M0 5120 l0 -5120 5120 0 5120 0 0 5120 0 5120 -5120 0 -5120 0 0
-5120z m9703 -1735 c83 -21 133 -50 197 -111 65 -62 103 -125 125 -209 23 -88
23 -1342 0 -1430 -22 -84 -60 -147 -125 -209 -64 -61 -114 -90 -197 -111 -85
-22 -1251 -22 -1336 0 -83 21 -133 50 -197 111 -65 62 -103 125 -125 209 -22
87 -23 1342 0 1428 21 83 50 133 111 197 61 64 125 103 205 124 81 22 1259 23
1342 1z"/>
</g>
</svg>
